/* XPM */
static char *_6bb27e95f7b4becaf8038689b67a88bmlzAbHvyF3fTy9AY[] = {
/* columns rows colors chars-per-pixel */
"30 120 92 1 ",
"  c #2A1511",
". c #2F1914",
"X c #331B15",
"o c #381D17",
"O c #3A1F18",
"+ c #3D221B",
"@ c #41241B",
"# c #49271E",
"$ c #47291E",
"% c #4B291F",
"& c #452921",
"* c #4E2B21",
"= c #512C21",
"- c #4E3025",
"; c #513226",
": c #5B3326",
"> c #573628",
", c #5A3729",
"< c #5E3A2B",
"1 c #643B2A",
"2 c #693D2B",
"3 c #6C412E",
"4 c #72432E",
"5 c #694130",
"6 c #6C4A3A",
"7 c #714531",
"8 c #724835",
"9 c #7B4A33",
"0 c #744C3A",
"q c #7B4F39",
"w c #7F513C",
"e c #775442",
"r c #785442",
"t c #834D35",
"y c #865037",
"u c #86543B",
"i c #8F553A",
"p c #8F593E",
"a c #91563B",
"s c #975A3D",
"d c #995B3E",
"f c #805946",
"g c #845D49",
"h c #965D41",
"j c #9D5F41",
"k c #8C644F",
"l c #9E6245",
"z c #90644C",
"x c #9F684B",
"c c #926953",
"v c #9E735A",
"b c #A26344",
"n c #A96847",
"m c #A36748",
"M c #A46748",
"N c #A5694B",
"B c #A66B4C",
"V c #AA6A49",
"C c #AC6B4A",
"Z c #AB6C4A",
"A c #AC6C4A",
"S c #A86E4F",
"D c #AC6F4F",
"F c #A96F50",
"G c #A37054",
"H c #AC7151",
"J c #AF7453",
"K c #A1755B",
"L c #A2765D",
"P c #AA7B5F",
"I c #B77956",
"U c #B17859",
"Y c #BA7B58",
"T c #BB7C59",
"R c #AB7B60",
"E c #AC7B60",
"W c #AC7C60",
"Q c #AE8064",
"! c #B18266",
"~ c #B38367",
"^ c #B38467",
"/ c #B58467",
"( c #B68669",
") c #B88769",
"_ c #BA896A",
"` c #BF8A6B",
"' c #BF8B6C",
"] c #C08C6C",
"[ c #C29070",
"{ c #C59272",
"} c #C79473",
"| c #C99574",
/* pixels */
"`lsbVd2rUsddAs;EMAddd2rUsdddi@",
"`lsbVd2rUsddAs;EMAddd2rUsdddi@",
"`lsbVd2rUsddAs;EMAddd2rUsdddi@",
"`ldbVd2rUsddAs;EMAddd2rUsdddi@",
"`ljVjd2rUsddAs;EMAddd2rUsbbdi@",
"`ljCdd2rUsddAs;EMAddd2rUsVbdi@",
"`ljAdd2rUsddAs;EMAddd2rUsVbdi@",
"`bbbdd2rUsddbs;EMAddd2rUsbbji@",
"`mAddd2rUsdddi;EMAddd2rUsdVbi@",
"`mAddd2rUsdddi;EMAddd2rUsdVbi@",
"`mAddd2rUsdddi;EMAddd2rUsdVbi@",
"`mAddd2rUljddi;Wbbddd2rUsdbji@",
"`mAddd2rUnbsdi;Wlsddd2rUsdddi@",
"`mAddd2rUnbsdi;Wldddd2rUsdddi@",
"`mAddd2rUnbsdi;Wldddd2rUsdddi@",
"`mAddd2rUnbsdi;Wldddd2rUsdddi@",
"`mAddd2rUnbsdi;Wldddd2rUsdddi@",
"`mAddd2rUnbsdi;Wldddd2rUddddi@",
"`bnddd2rUnbsdi;Wlddjd2rGidsyi@",
"`ldddd2rUnbsdi;WlslVd2rr2ds*u%",
"`ldddd2rUnbsdi;WlsbVd2rr2ds%u%",
"`ldddd2rUnbsdi;WlsbVd2rr2da%u%",
"`ldddd2rUnbsdi;WlsbVd2rkwNm2p%",
"`ldddd2rUnbsdi;WlsbVd2e{[{]IV$",
"`ldddd2rUnbsdi;WlsbVd2e}{{{YV$",
"`ldddd2rUnbsdi;WlsbVd2r|{{{TZ$",
"/7adt32rUlbldi;Wldbbd2*66662<o",
"Q;id4=2rUsVbdi;WljCdd2        ",
"Q;id4=2rUsVbdi;WljCdd2        ",
"!<hlq<3rUsVbdi;WljCdd2........",
"[)']`_frUsVbdi;WljCdd2O%%%%%#X",
"{{{{{|grUsVbdi;WljCdd2+===*=*X",
"{{{{{|grUsVbdi;WljCdd2+==**=*X",
"^^^^^(rrUsVbdi;WljVdd2@==::*%X",
"++++++XrUsVbdi;Wldddd2331ai%@X",
"       rUsVbdi;Wldddd2772ds%@X",
"       rUsVbdi;Wldddd2772ds@@X",
"OOOOOOXrUsVbdi;Wldddd27u9ds21O",
"======+rUsVbdi;Wldddd27Vdddda@",
"======+rUsVbdi;Wldddd27nddddi@",
"*==***+rUsVbdi;Wldddd27nddddi@",
"7==222=rUsbldi;Wldddd20Dsdddi@",
"V::sdd2rUsdddi;Wldddd2rUsdddi@",
"N::sdd2rUsdddi;Wldddd2rUsdddi@",
"N::sdd2rUsdddi;Rlddsd2rUsdddi@",
"b=td912rUsdddi;K5bj937rUsdddi@",
"b=ad4=2rUsdddi;v>bj4,9rUsdddi@",
"b*id4=2rUsdddi;v>bj4,9rUsdddi@",
"S1ad912rUsdddi;L0HBu0qrUsdddi@",
"`lsdsd2rUsdddi;![{{[{grUsdddi@",
"`ldddd2rUsdddi;!{{{{|grUsdddi@",
"`ldddd2rUsdddi;^|}}}|grUsdddi@",
"`ldddd2rUsdddi*cKKKKL6rUsddja@",
"`ldddd2rUsddda+...... rUsddAd@",
"`ldddd2rUsddda+       rUsddAd@",
"`ldddd2rUsddda+       rUsddAd@",
"`ldddd2rUsddda@+@@@@@orUsddAd@",
"`ldddd2rUsddda@%=====+rUsddAd@",
"`ldddd2rUsddda@#=====+rUsddAd@",
"`ldddd2rUsddda@;===*=@rUdddAd@",
"`ldddd2rUsdVli;c;9=@=1rUbbdAd@",
"`ldddd2rUsdVbi;v;t=@=2rUnbdAd@",
"`lsddd2rUsdVbi;v;t=@=2rUnbdAd@",
"`ldddd2rUsdVbi;v<t:%:2rUnbdVs@",
"`bVddd2rUsdVbi;Phsaia2rUnbdja@",
"`mAddd2rUsdVbi;Wldddd2rUnbsdi@",
"`mAddd2rUsdVbi;Wlsddd2rUnbsdi@",
"`mAddd2rUsdVbi;Wbbddd2rUnbsdi@",
"`mAddd2rUsdVbi;EMAddd2rUnbsdi@",
"`mAddd2rUsdVbi;EMAddd2rUnbsdi@",
"`mAddd2rUsdVbi;EMAddd2rUnbsdi@",
"`mAdjb2rUslbji;EMAddd2rUnbsdi@",
"`mAdbA2rUsVbdi;EMAddd2rUnbsdi@",
"`mAdbA2rUsVbdi;EMAddd2rUnbsdi@",
"`mAdbA2rUsVbdi;EMAddd2rUnbddi@",
"`mAdbA2rUsVbdi;EMAddd2rUjnldi@",
"`mAdbA2rUsVbdi;EMAddd2rUsVbdi@",
"`mAdbA2rUsVbdi;EMAddd2rUsVbdi@",
"`mAdln2rUsbbdi;EMAddd2rUsVbdi@",
"`mAddd2rUsdddi;EMAddd2rUsVbdi@",
"`mAddd2rUsdddi;EMAddd2rUsVbdi@",
"`mAddd2rUsdddi;EMAddd2rUsVbdi@",
"`mAddd2rUsdddi;EbVldd2rUsbbdi@",
"`mAddd2rUsdddi;WllVdd2rUsdVbi@",
"`mAddd2rUsdddi;WljCdd2rUsdVbi@",
"`mAddd2rUddddi;WljCdd2rUsdVbi@",
"`mAddd2rz9ds2u>WljCdd2rUsdVbi@",
"`mAddd2rr2ds%u,EljCdd2rUsdVbi@",
"`mAddd2rr2ds%u,EljCdd2rUsdVbi@",
"`bVddd2rg7lj,p,EljVdd2rUsdVli@",
"`ldddd2r'_]'(F>Eldddd2rUsdddi@",
"`lsddd2e|{{{{H>Eldddd2rUsdddi@",
"`ldddd2r|{{{{J>Rldddd2rUsdddi@",
"`ldddd26(^^^!x>Wldddd2rUsdddi@",
"`ljVdd2X++++++@Wldddd2rUsdddi@",
"`ljCdd2       +Wldddd2rUsdddi@",
"`ljCdd2       +Wldddd2rUsdddi@",
"`ljCdd2XOOOOOo@Wldddd2rUsdddi@",
"`ljCdd2+=====%&Wldddd2rUsdddi@",
"`ljCdd2+=====%&Wldddd2rUsdddi@",
"`ljCdd2O==**=%&Wldddd2rUsdddi@",
"`ldbbd2=::22*#&Wldddd2rUsdddi@",
"`lsbVd2772ds%@&Wldddd2rUsdddi@",
"`lsbVd2772ds%@&Wldddd2rUsdddi@",
"`lsbVd2772ds%@&Wldddd2rUsdddi@",
"`lsbVd27lidst9-Wlddbn2rUsbbdi@",
"`lsbVd27Vdddda;WldsbA2rUsVbdi@",
"`lsbVd27nddddi;WlddbA2rUsVbdi@",
"`lsbVd28Sdjddi;WlddbA2rUsVbdi@",
"`lsbVd2rUsVbdi;WlddbA2rUsVbdi@",
"`lsbVd2rUsVbdi;WlddbA2rUsVbdi@",
"`lsbVd2rUsVbdi;WldsbA2rUsVbdi@",
"`lslbd2rUsVbdi;Wlddbn2rUsbbdi@",
"`ldddd2rUsVbdi;WlslVd2rUsdVbi@",
"`ldddd2rUsVbdi;WlsbVd2rUsdVbi@",
"`ldddd2rUsVbdi;WlsbVd2rUsdVbi@",
"`ldddd2rUsljdi;Wlsjbd2rUsdVbi@",
"`ldddd2rUsdddi;Wldddd2rUsdVbi@",
"`ldddd2rUsdddi;Wldddd2rUsdVbi@",
"`ldddd2rUsdddi;Wldddd2rUsdVbi@"
};
