/* XPM */
static char *_67903708371410fabf6c2ebfda9db41Xkb25v9bCfgyA9qP[] = {
/* columns rows colors chars-per-pixel */
"32 32 6 1 ",
"  c #27212E",
". c #3A3250",
"X c #525969",
"o c #618691",
"O c #86AEAD",
"+ c #B1D0C8",
/* pixels */
"XoXXXXXXooOOOooXXXXXoOOoooXXXXXX",
"ooXXXXXXXoooooXXooX.XOOooXXXXXoO",
"oXX...XXX.XooooooX..XOOooooOOOOo",
"XX...XXooX..XoooXX..XOOoooOOOooo",
"X. XXoOOOOX...XXX. .XO++OOOoooXX",
"X  XXO++oooXX..X.  XXOO+++ooXXXX",
".  .oOOooXXXoX.   .XXOOOooXXXXXX",
". . OOOoXXXooX   ...XoOOooooXXX.",
"XXX.O+Ooooooo....XX..XoOooooXX..",
"XXX.oO++OOooX.XXXXX..XXoooXX...X",
"XXX.oooooooX.XXXoooX..XXXXX...XX",
"XXX..oooooX.XXoOOOOoX. XXXXXXXXX",
"OOo...X..X.XXXO+OooooX. ..XXoOOO",
"OoX.XXX....XXo+OoooXX... .o++++O",
"ooXXooX. ..XXO+oooXX......OOOooo",
"ooooooXX  XXoOOoooXXXXXX.XOOoooo",
"ooooooXX  .XoOOoooOOooX.XOOooooO",
"oOOooooX. ..oOOOoOOooX.XoOoooOOo",
"oO++oooX..XXoO++OOooXX.XoOOOOOoo",
"oXoOOOo...XXXoOOooooX..XoO++Oooo",
"XXXoooX..XXXXXXooooXX.XXooOOoooo",
"XXXXXXXX.XXoooXXXXXXX.XXXooooooX",
"XXXXXXXXoOOOOOoX...XX XXXXXooXXX",
"XXX..XXoOOOOOoooX...X .XXXXXXXXX",
"XX..XXXOO++OoooX.....  ..XX.....",
"...XXXo+++OoooX...XX.    .......",
"...XXXO++OoooXXXXooXXX. ...XXXX.",
"XX..XoOOOOoXXXXoOOoXXXXoOOOOOOOo",
"oXX..ooOOoooooOOOooX.oOOOOOOOooo",
"oo...XoOOooooOOOooX.oOOO+++Ooooo",
"....XXoO+OoOOOOooX..oO+++oooooXX",
"...XXXXoO++OOOooX...oOOOooooXX.."
};
