/* XPM */
static char *_38fc2ea00b14aed833c617a5d305eb2AHv45XfanZf5yvqC[] = {
/* columns rows colors chars-per-pixel */
"30 120 180 2 ",
"   c #34353D",
".  c #363641",
"X  c #393742",
"o  c #363942",
"O  c #393C45",
"+  c #3C3E4A",
"@  c #413E4C",
"#  c #3E424B",
"$  c #42424E",
"%  c #454452",
"&  c #434C55",
"*  c #4B4E57",
"=  c #454E59",
"-  c #494F5A",
";  c #46535C",
":  c #4A535D",
">  c #46595F",
",  c #50565E",
"<  c #4C5560",
"1  c #475962",
"2  c #4A5B63",
"3  c #475D68",
"4  c #4B5E69",
"5  c #515661",
"6  c #535963",
"7  c #595B66",
"8  c #525F6A",
"9  c #5C5E6A",
"0  c #615F6C",
"q  c #4D6067",
"w  c #4E636B",
"e  c #53636C",
"r  c #5A646E",
"t  c #56696F",
"y  c #4E6670",
"u  c #536770",
"i  c #5B6771",
"p  c #556B74",
"a  c #5A6C75",
"s  c #566E78",
"d  c #5A6E79",
"f  c #5A7177",
"g  c #56717A",
"h  c #5D737B",
"j  c #5F787C",
"k  c #60616E",
"l  c #636671",
"z  c #626B75",
"x  c #626E79",
"c  c #617077",
"v  c #62747D",
"b  c #69747D",
"n  c #64787F",
"m  c #5D7681",
"M  c #5E7982",
"N  c #647681",
"B  c #6A7681",
"V  c #647A84",
"C  c #6B7C85",
"Z  c #657E88",
"A  c #6B7E89",
"S  c #717C85",
"D  c #737F89",
"F  c #678087",
"G  c #6C8187",
"H  c #66818A",
"J  c #6C838C",
"K  c #6D888E",
"L  c #73848D",
"P  c #79858E",
"I  c #74888F",
"U  c #79888F",
"Y  c #6E8691",
"T  c #6E8A92",
"R  c #738691",
"E  c #7A8691",
"W  c #748B94",
"Q  c #7A8C95",
"!  c #768E99",
"~  c #7A8E99",
"^  c #769096",
"/  c #7B9197",
"(  c #76919A",
")  c #7B939C",
"_  c #7E989F",
"`  c #7D96A1",
"'  c #7D99A2",
"]  c #828E98",
"[  c #81959D",
"{  c #88969F",
"}  c #82999F",
"|  c #8296A1",
" . c #8997A2",
".. c #839BA4",
"X. c #899DA5",
"o. c #859EA8",
"O. c #899EA9",
"+. c #85A0A7",
"@. c #8BA1A6",
"#. c #86A2AA",
"$. c #8BA3AC",
"%. c #8DA9AE",
"&. c #91A6AE",
"*. c #92A9AF",
"=. c #8DA6B1",
"-. c #8EAAB3",
";. c #91A6B1",
":. c #92AAB4",
">. c #94AAB5",
",. c #93ABB4",
"<. c #9AADB5",
"1. c #97AFB9",
"2. c #94AFB8",
"3. c #95AEB9",
"4. c #9AAEB9",
"5. c #96B0B6",
"6. c #99B0B6",
"7. c #96B1BA",
"8. c #97B2BB",
"9. c #96B2BA",
"0. c #99B1BB",
"q. c #9AB2BC",
"w. c #98B3BC",
"e. c #9BB6BD",
"r. c #9AB5BE",
"t. c #99B6BE",
"y. c #9DB4BC",
"u. c #9DB5BF",
"i. c #9EB7BE",
"p. c #9AB3BC",
"a. c #97B8BF",
"s. c #9FB8BF",
"d. c #9DB8BF",
"f. c #A1BABF",
"g. c #99B5C0",
"h. c #9FB5C0",
"j. c #9CB7C0",
"k. c #9EB6C2",
"l. c #9CB6C1",
"z. c #97B9C2",
"x. c #9FBAC1",
"c. c #9EBAC3",
"v. c #A0B6C1",
"b. c #A1B9C3",
"n. c #A1BCC3",
"m. c #A3BBC5",
"M. c #A3BEC5",
"N. c #A6BFC6",
"B. c #A2BCC5",
"V. c #A8BCC5",
"C. c #A3BFCA",
"Z. c #A2BDC8",
"A. c #A7BDC8",
"S. c #A7BFC9",
"D. c #A7BFCB",
"F. c #A4BEC9",
"G. c #A9BDC8",
"H. c #A8BEC9",
"J. c #A9BFCA",
"K. c #A5C0C7",
"L. c #A7C0C7",
"P. c #A4C0C7",
"I. c #A6C1CA",
"U. c #A6C1C8",
"Y. c #A5C1CB",
"T. c #A8C0CA",
"R. c #A8C3CA",
"E. c #A9C0C8",
"W. c #A8C2CD",
"Q. c #A9C4CD",
"!. c #AAC5CC",
"~. c #ABC6CD",
"^. c #ACC7CE",
"/. c #AEC7CE",
"(. c #A9C2CC",
"). c #AEC6D2",
"_. c #ADC8D1",
"`. c #AECBD6",
"'. c #B0C9D5",
"]. c #B1CCD9",
/* pixels */
"< < < < : = < < : : : < : : : ; < : - = < : : - : ; : < < = ",
"D Q P E E x B Q E P E v N E P E E x B Q L P Q x b Q E E E b ",
"%.s.i.s.N.! _ N.i.i.E./ _ N.i.i.V.Q _ F.i.k.H.W | F.i.k.m._ ",
"%.K.U.e.~.( ' ~.M.x.E.W ..^.n.x.^.! ' _.F.e.).! ..T.F.e.T.` ",
"Y %.;.W o.h Z $.;.K o.Z Z =.;.K ..V V #.:.! | N V %.:.W ..h ",
"V o.=.R ` w h o.;.W ` w h o.;.W [ w h #.%.W ..w h ..;.I [ q ",
"V ..O.! O.3 d O.X.Q $.4 d O.O.W O.2 a @.X.! $.1 h ..@.W X.> ",
"J %...! ;.u V $...W >.y V %.` ! ,.u N %...! ,.u v &...W *.e ",
"( 1.( ( b.m Y 0./ ! m.h W 7.( ( b.N Y 7.( ( b.h R 0.! / k.N ",
"$.q.( ) U.Z ` k.! ) U.Z ' e.( ) T.Z ` l.( ` F.Z | k.! ` F.J ",
":.1.W ..E.V o.q.W ..E.V o.q.W ..F.V o.7.W ..H.V O.0.Y ..F.G ",
"3.:.Y $.N.h $.>.Y $.m.h #.:.K $.N.h $.:.Y $.N.h #.3.K $.b.V ",
"1.$.Y :.x.g $.$.Y :.x.h $.=.J :.b.f $.%.Y ,.b.f #.%.K ,.y.j ",
":...Y 7.7.g o.o.W 7.1.g #.#.Y 0.5.h #.+.Y 7.5.h +.o.Y 5.3.j ",
"=.` ! k.:.s ....W k.;.s ....! k.;.d ..' W k.;.d ....! e.%.h ",
"O.( ( m.%.p _ _ ! m.$.s _ _ / b.$.d ` ` ! F.$.d ` _ ( x.#.h ",
"| ^ ` M...d ~ / ` c.o.h W ) ' m...d ~ ) ) M.o.d ! ) ' n.| v ",
"[ ! ..c.| h Q ! o.c.| h W ^ o.c.| h ~ ! o.c._ h ! ^ ..b.[ n ",
"| ! =.l.) v Q Q =.l.( h ^ ^ $.k.( v Q ! -.k.~ N ~ ! $.s./ V ",
"..W 2.9.! C Q ! :.7.! Z / ! :.7.~ V ~ ! :.7./ V ( ! :.7.! C ",
"..W e.-.W J Q ! 7.-.! K ^ ^ 7.-.~ J ~ ! q.=.( J ~ ! e.-.! J ",
"_ ! x.$./ W ! ^ b.$.( W Y ) x.#.Q ! W ~ b.#./ W W ( x.#.( ! ",
"/ _ c...` ~ K _ m...` ~ J ' m..._ Q K _ N..._ / J ..M.' ' ) ",
"! ..x.( ..~ F o.m.( | / H ..m.( o.! F o.m.( ../ F o.M.( ' ) ",
"! $.x.W O.~ Z =.s.! $.W H $.s.! #.! F %.b.! $.~ A =.x.! #.( ",
"! -.i.W %.W F :.i.W ;.W J -.i.W %.W H ,.k.W =.W J 3.i.W $.! ",
"( 7.7.Y >.J Y q.3.I >.J J 7.7.K ,.K J 0.0.R 3.J Y q.1.Y :.Y ",
"` l.-.K 0.Z T x.&.I 0.V T c.-.K 4.Z Y x.;.Y 0.Z W b.=.Y 7.H ",
"' m.#.W q.h ( M.O.W 0.m ! F.#.W 0.N ^ M.#.W q.h ! M.#.W 7.M ",
"o.c.../ 0.h ) M.| ~ 4.d ) Y.| / 4.h ) P.../ 7.g ( F.../ 3.h ",
"#.x./ _ ,.s ` F./ [ <.s ' F.Q [ ,.d ' M.( ` :.s _ M./ _ *.f ",
"=.x.^ ..;.s ' F.! ..;.p o.F.! o.;.a o.M.! ..;.s ..n.! o.%.f ",
"%.e.T $.$.u ..e.K $.X.a O.q.Y %.X.a X.q.T $.#.a X.0.W ;.X.d ",
"_ o.! -.[ e Q ..W %.) e W #.W -.} e W X.W -.[ e I @.W ;.[ e ",
"C I ^ ,.E 4 V I ^ 5.P 4 n W ^ ,.I 1 B W / 3.W 1 n Q ! 3.E : ",
"V G ) ,.L : v K / 5.G < v G ) ,.L 1 v C / 3.L 1 c G / 4.L ; ",
"W G ..4.L 8 L I ..3.I e A E | 4.E e A R ..1.I 4 S P | ,.R 8 ",
"E L ~  .L a L L ~  .L z L L Q  .P z D E ~ X.L i P P ]  .D z ",
", , , 6 6 - 6 : , 6 , * , , 6 6 6 * 5 : : 6 5 : : , 6 7 5 * ",
"          o +   .   . o     o   O o o . o o .     o o .     ",
"# # # # # # % # # # # + $ $ + $ $ # # # # # # # # + $ + # # ",
"z x i 8 b c a x r r b z z x r r b z z b r e b x x x i e c a ",
"=.4.! A 1.$.=.3.Q A 1.$.=.4.~ A 3.$.=.3.Q A :.=.=.3.Q A 3.%.",
"U.'.$.( `.Q.Y.'.=.! `.Y.Y.'.=.~ ].Y.Y.'.$.~ ].Y.Y.].=.! `.Y.",
"..$.! Z -.j.' =.W A -.e...$.Q F -.c.' #.Q C =.k.' $.W Z ;.e.",
"W ) h h ( 7.K [ d h _ 5.K } c h ) :.J ..a a ..1.Y ..h h ) ,.",
"I @.w u ) %.! X.e u ) ,.K $.e u ( -.K @.e i / :.K #.e t ) ,.",
"I &.i a ..#.W ;.i a ..%.W &.i i | $.W &.i a | %.W %.t a } $.",
"Y i.C v ;...T l.A v ;...T i.C v ;...W i.A N :.o.Y e.Z v ;.+.",
"T M.W C k.) ! c.R J v.) ! F.W A k.) W m.R Y l.( ! M.W F i.' ",
"( M.Q I m.! ( U.W W m.W ( F.W R m.^ ( E.W W M.! ^ Y.! W b./ ",
"' M.J Q v.Y ` Y.Y ! v.W ` Y.J Q k.T ' F.I ~ k.! ' U.F Q i.! ",
"$.M.Z Q q.Y o.U.F / q.W o.Y.A / q.Y ..N.A / 7.Y +.U.V / 4.! ",
"-.x.V Q >.J =.c.V / 3.J =.c.V Q 3.J =.N.N / 3.J =.m.V / ,.W ",
"9.w.V Q $.Y 2.e.N / %.J 9.q.V Q %.K 7.i.v Q %.K :.w.V Q %.W ",
"l.7.h Q o.W 9.7.h Q o.Y l.2.h W +.W 7.:.N Q o.Y w.7.h W X.! ",
"j.=.v L ` ( x.=.N I ..W M.=.N I ..! b.%.v L ..! s.%.v I [ / ",
"c.#.N L ` ( c.#.N I _ ( c.#.N J ` ( x.#.v J ..^ x.#.N J _ / ",
"c...V I _ ) F.' V L _ ..c...V I ( ' x...N L _ _ x.' V J _ ) ",
"j.) C I ) ..M.) C I / #.c.) A I / #.x._ C E ) +.x.) A R _ ..",
"7.( I W ~ =.l.( I I Q %.l.( L E / $.e.~ L W ! %.e.( K W ( $.",
"-.( Q I ~ 1.2.! Q I ~ 3.1.( W I / :.3.! Q E ! :.:.( ! I / :.",
"#.( [ G ( e.=.( [ G / i.-.( [ G ( e.%.! [ L / e.$.( ) J ( e.",
"../ ..C _ x.#./ ..C / x.#.! ..C ) c.o.~ | C _ x.#.^ | A ) x.",
") _ | B ..x.' _ | V ..x._ ..| V ..c.` | | V ..x._ _ ..N o.c.",
"/ ..} V #.c.) ..} V #.x.) o.[ V #.c.( ..| V #.x.) ..| V $.c.",
"! #.[ V -.j.! $.[ V -.a.! #./ Z -.j.! #.) V -.d.! #.) V -.z.",
"Y ;.Q C 9.w.T :.Q C w.7.Y ;.Q Z 9.w.Y ;.~ V 7.9.Y ;.Q Z 9.9.",
"W 3.L C x.-.T 4.L A x.:.Y 3.I C x.:.Y 1.R Z s.:.Y 1.R A c.-.",
"W 0.C G P.$.Y 0.C A N.$.W 0.C G M.=.! 4.A F M.$.W 4.A J F.=.",
"^ 0.v I Y.' ^ 7.N L U...^ 7.v K U...( 7.N K K...^ 0.V Y U.+.",
"/ 0.h I U.' ( 7.v R U.' ( 7.v I U.' ( 7.h R K.) ( 0.N R F...",
"..3.d ~ K.^ ..;.v ~ E.! ..3.d Q F.( ..;.h Q N.^ ..;.n ~ N.) ",
"W X.a W ;.W o.;.a L ,.! +.%.a P >.! o.%.i I ;.! #.%.a E ,.Q ",
"} } q n ^ ! %.o.8 N Q ! %.} e V / ! $.o.4 B ~ ! %.o.4 B Q Q ",
"} Q 1 h F ! ;./ 1 x G W ,./ 1 x G ! ,._ 1 c G ! -._ 1 a C / ",
"} L 2 f F ^ ,.W 1 c G W ,.W 1 c G ! ,.W 2 v G ! ,.W 2 h C Q ",
"X.~ c C Q [ <./ z D ] [ ,./ z D ~ [ ,./ b L ~ [ 4.Q c D ~ [ ",
"r l 9 k z z b z 7 k z z b z 7 0 z z b z 9 k z z B i 6 r z l ",
"+ $ @ + $ $ + $ $ @ $ $ + # $ @ % @ + # % @ $ # + $ $ + $ $ ",
".     . X   . .     X . . . . . .   o . X . X . . . . . . . ",
"; 5 6 < 6 < : 6 6 5 5 : : 5 5 6 6 : : < 6 6 5 : : 6 6 < 6 : ",
"V Q / / [ V V [ Q / [ V A [ ~ Q [ n G [ Q ~ [ N A [ / ~ / V ",
") j.M.M.U.^ ' Q.c.M.~.! ' Q.c.m.~.! ..T.m.m.^.W ..F.M.M.U.) ",
"T c.U.2.m.! ' F.F.2.F.! ` F.F.7.N./ ( Y.U.2.m.! ` U.x.:.M.( ",
"h o.;.Y ..h m #.=.Y ..h V #.:.K | h N $.=.K ..h V %.$.J ..h ",
"h o.%.W ..w h #.;.W ..w d X.:.R ..w d O.$.W ..4 h $.;.I ..q ",
"u ..X.Q X.2 h X.X.W $.1 h $...Q X.2 h X.O.Q O.2 h X.X.W @.> ",
"h $.} W 4.u V &._ W 4.u N &.[ Q 4.u Z %._ ! 4.u C ,._ W 4.e ",
"F $./ ) m.j W 6./ / b.n W 0._ Q b.v ! 7.( / b.N W 0./ / b.N ",
"..0.W _ N.Z ..i.W ..H.Z | k.! ) E.Z ' e.! ' U.F ..e.T ' F.K ",
"! =.W o.F.V o.1.W o.E.N o.q.Y o.T.M o.9.T o.U.Z #.9.Y o.F.H ",
":.;.Y $.F.m #.-.T $.F.h #.:.Y =.m.m #.-.Y =.m.m $.2.Y =.c.V ",
"' ..! :.e.s #.-.T :.x.g $.$.Y :.i.h $.$.T :.k.h $.%.W :.i.N ",
") ) W w.3.h o.o.W 0.7.h o.o.Y 0.3.h o.o.W 0.>.h O.o.W 0.3.h ",
"$._ ! n.%.a ....! s.&.a ....W b.*.a ....W b.&.a ....W f.&.h ",
"A W ) x.#.a [ [ / M.$.s _ ) ! n.@.a ) / / b.$.a ) _ / n.O.d ",
"L W ' x...d Q / ' x...d ~ ( ) b.o.f Q / _ x.X.h Q / _ b...h ",
"E W #.d._ v W ~ #.x._ h W ~ o.x._ v Q / ..x.[ v Q ! +.x.) v ",
"Q W -.d./ N ~ ! =.e./ V Q ! =.e./ V Q Q $.e./ V Q ! %.d./ V ",
"Q Y 7.7.~ V ) W :.7.! Z ~ ! :.1.! C / ! :.0.! C ~ ! :.7.! F ",
"R R e.-.~ A ) ! e.-./ J ! / q.-.! J Q ! w.%.~ J W / w.-./ R ",
"A ! M.#.( W W ( x.#.( W W _ x.#./ W R ( x.o.) W R ) x.+.( ! ",
"V ( M.' ) ) J | m.' _ ) K ` x..._ / J ..M.` | / K ' c.' ( ( ",
"V ..M.( o.W A #.c.) o.~ F #.m./ ..! H o.m.( ..! F o.M.( ..( ",
"! $.x.Y #.~ J %.x.! #.! H $.x.! #.! F $.b.! #.! F $.m.! #.( ",
"J =.e.! ;.R J 1.e.Y =.W J :.e.W ;.R J :.i.W ;.W J :.x.Y %.! ",
"Y 7.1.Y 1.J Y q.7.Y 1.J J e.1.Y 4.F Y e.1.Y 1.J J e.7.J :.K ",
"W e.$.K 0.Z ! x.;.Y q.V W c.=.Y q.V ! c.=.Y q.V W m.=.Y 5.Z ",
"F 7.#.! 0.h ( M.o.! q.h ( M.o.W q.h ( F.o.W q.h ! F.O.! 6.j ",
"! i.' ( 0.h _ M.` ( 4.d ) M.` ( 4.d ) M.../ 0.s ( F.[ _ 3.h ",
"/ i.) ) 3.u _ M./ _ 4.p ' M.( | >.p ) M.( _ 3.p _ F./ ' ,.s ",
"W x.W o.;.s o.N.W o.&.s ..M.! O.;.a o.M.W o.;.s o.N.! +.$.h ",
"! %.W $.#.p ..0.I %.O.p ' 7.W #. .u ..5.W %.O.p | 1.W %.X.a ",
"I ) ^ ;./ e I ..W ,.) e I o.W ,./ e W ..! 3.) e W ..W ,./ e ",
"a G / ;.E 2 v W ~ ,.E 2 h W / <.W 1 v I ~ ,.W 2 N W ! ,.I > ",
"a C / ,.L : c G [ <.L > v G [ <.L > v G ~ ,.L 1 c A ~ <.C ; ",
"Q W ..<.P e D P { <.E e L E { <.P e L E | 4.E e L E ..<.U e ",
"P C L ~ C r S C L ] S r B C P ] C r C C P ] C r C C P ~ C r ",
"; ; : > : & : : : : < ; ; > : ; : ; ; < < & < = = > : ; ; ; "
};
