/* XPM */
static const char *U1RBUldBTExC[] = {
/* columns rows colors chars-per-pixel */
"32 32 15 1 ",
"  c #17331C",
". c #1C3418",
"X c #172520",
"o c #262A30",
"O c #613726",
"+ c #2B4D26",
"@ c #436D3B",
"# c #505761",
"$ c #A34D2A",
"% c #DF733D",
"& c #658645",
"* c #83A860",
"= c #BFC775",
"- c #8AA1AC",
"; c #E3EBAB",
/* pixels */
"@&=;;;;;;;;;=&@+@&=;;;;;;;;;=&@+",
"*=;;;;;=;=;===*+*=;;;;;;;;=;;=*+",
"&*===========*&+&*===========*&+",
"@&*****&*&*&*&@+@&*****&*&*&*&@+",
"++...........+++++...........+++",
"+*============+++*O%$%$%$%$%O=++",
"&=============@+&=$$%$%$%$%$$=@+",
"&*=*&=*&=*=*=*@+&*OOOOOOOOOOO*@+",
"&***&*&@&*&&*&@+&*$%$%$%$%$%$&@+",
"&***&*&@&*&@&&@+&*O$%$%$%$%$O&@+",
"@&**@&@@&*@@@  .@&@OOOOOOOOO&@@.",
"................................",
"...++++++++++......++++++++++...",
"@&=;;;;;;;;;;&@.@&=;;;;;;;;;=&@.",
"*=;;;;;;;=;===*+*=;;;;;=;=;=;=*.",
"&*===========*&+&*===========*&.",
"@&*****&*&*&*&@X@&*****&*&*&*&@+",
"++...........++X++...........+++",
"+*============+X+*============++",
"&oo#-#######oo@X&=============@+",
"&o#-o-###-#-#o@X&*=*&=*&=*=*=*@+",
"&o##-#####-##o@X&***&*&@&*&&*&@+",
"&o#######-###o@X&***&*&@&*&&*&@+",
"@oo#######-#oo@X@&**@&@@&*&&*@@+",
"@&&XXX@@&&XX&@@+@&&*@&@@&&&@&@@+",
"@@&XXX@+&&XX&@@+@@&&@@+@&&@@&@@+",
"@@&XX@++@@@+&@+X+@&&@++@@@+@&@@+",
"@@@X++++@+++@@XX+@@@++++@@++@@+X",
"+++++++++++++++X+++++++++++++++X",
"===========*======XX==XXX*==**==",
"&&&&*****&********XX*XX$XX**&*&*",
"@@@@@&&&@@@&&&&&&&@&@@&@&&&@@@@@"
};
