/* XPM */
static char *d07b431b9b8145e0853c4d0656e2a48a5it5Hb7DqRU1oMcY[] = {
/* columns rows colors chars-per-pixel */
"32 32 202 2 ",
"   c #2B2A23",
".  c #332D28",
"X  c #332D27",
"o  c #363326",
"O  c #3C3B29",
"+  c #453F2D",
"@  c #3E531A",
"#  c #3C4E1B",
"$  c #35703C",
"%  c #425A17",
"&  c #425A19",
"*  c #495D1D",
"=  c #415F31",
"-  c #544B28",
";  c #4B6324",
":  c #426030",
">  c #4A6137",
",  c #446239",
"<  c #4B6338",
"1  c #5E6F38",
"2  c #5C6A32",
"3  c #5F7337",
"4  c #766D39",
"5  c #786F37",
"6  c #617137",
"7  c #757234",
"8  c #797535",
"9  c #7A7B33",
"0  c #727933",
"q  c #767B2F",
"w  c #287447",
"e  c #236C5B",
"r  c #2A7560",
"t  c #46634B",
"y  c #5B724C",
"u  c #6A7B49",
"i  c #757476",
"p  c #807E36",
"a  c #81773B",
"s  c #807B39",
"d  c #807634",
"f  c #847C45",
"g  c #AD6D5E",
"h  c #AD7650",
"j  c #966266",
"k  c #9F6664",
"l  c #91776C",
"z  c #AC6C60",
"x  c #769D1F",
"c  c #53853D",
"v  c #5B943E",
"b  c #719424",
"n  c #799526",
"m  c #779D20",
"M  c #799A23",
"N  c #769829",
"B  c #759F38",
"V  c #7DA322",
"C  c #7AA424",
"Z  c #75A437",
"A  c #5C9653",
"S  c #518D4F",
"D  c #629952",
"F  c #72995E",
"G  c #508C69",
"H  c #6D9D60",
"J  c #77A569",
"K  c #6CA073",
"L  c #818135",
"P  c #839B32",
"I  c #81AA23",
"U  c #87A228",
"Y  c #87A738",
"T  c #8DB238",
"R  c #D0BE3D",
"E  c #9CCD2B",
"W  c #95C82C",
"Q  c #99C93B",
"!  c #A1D22C",
"~  c #A6D92E",
"^  c #A9D62F",
"/  c #A9D631",
"(  c #A5CA2F",
")  c #8D8846",
"_  c #99987E",
"`  c #B29A67",
"'  c #B09868",
"]  c #A08368",
"[  c #BEA863",
"{  c #AAA954",
"}  c #D3BE51",
"|  c #C48876",
" . c #D0BB79",
".. c #9AD342",
"X. c #A8D643",
"o. c #C8D957",
"O. c #DCCD4F",
"+. c #FDEA5A",
"@. c #D9C86A",
"#. c #E7C065",
"$. c #1751A0",
"%. c #344FB4",
"&. c #3752B6",
"*. c #2748B6",
"=. c #5D6E83",
"-. c #465BB4",
";. c #437DBF",
":. c #527FB1",
">. c #466EBF",
",. c #154AC1",
"<. c #1C54C5",
"1. c #335CC7",
"2. c #2259D6",
"3. c #265FC4",
"4. c #2968CB",
"5. c #3261CC",
"6. c #3462C7",
"7. c #3A71C3",
"8. c #3D70CC",
"9. c #2762DB",
"0. c #2A63D6",
"q. c #396BD9",
"w. c #3772D7",
"e. c #3773DA",
"r. c #3B72D7",
"t. c #326DE6",
"y. c #306EEA",
"u. c #3675ED",
"i. c #3C78EE",
"p. c #3676F1",
"a. c #3877F1",
"s. c #3B79F2",
"d. c #446FC3",
"f. c #407CC1",
"g. c #4374DD",
"h. c #4B7CDA",
"j. c #4876D9",
"k. c #557FDF",
"l. c #457DEB",
"z. c #447DF1",
"x. c #896E82",
"c. c #4682AC",
"v. c #5284B4",
"b. c #568AB2",
"n. c #61C5BD",
"m. c #7CD2B4",
"M. c #598EC4",
"N. c #538AD4",
"B. c #768EDC",
"V. c #66A7DF",
"C. c #5386EE",
"Z. c #5689EE",
"A. c #4781F2",
"S. c #4B84F2",
"D. c #5087F2",
"F. c #5B8FF2",
"G. c #5388F2",
"H. c #5E91F3",
"J. c #4F8EEC",
"K. c #6793F1",
"L. c #6D92EC",
"P. c #889398",
"I. c #8EBBB9",
"U. c #B5B6AB",
"Y. c #E2B8A4",
"T. c #B8D286",
"R. c #81D7B5",
"E. c #B6C8AA",
"W. c #C8CBBB",
"Q. c #D6D7BB",
"!. c #E3E4BC",
"~. c #9CA6D5",
"^. c #B5BDD0",
"/. c #B4BCCF",
"(. c #9EB7EE",
"). c #AFBEE3",
"_. c #B1C0DC",
"`. c #A7C9ED",
"'. c #BCCCE4",
"]. c #A8C2F6",
"[. c #B4CAF7",
"{. c #C3C4C9",
"}. c #D6DAC5",
"|. c #CBCCD1",
" X c #D3D7D7",
".X c #CFD3D0",
"XX c #EFE9C6",
"oX c #C7D5EA",
"OX c #C4D3F3",
"+X c #C9D8F7",
"@X c #CBDAF8",
"#X c #D4DEF3",
"$X c #D0DBE1",
"%X c #DDE4E2",
"&X c #DCE5F9",
"*X c #D9E3F7",
"=X c #E5E6EC",
"-X c #E6E8EE",
";X c #E8E9EF",
":X c #EBEDF3",
">X c #EFF1F8",
",X c #F1F3FA",
/* pixels */
"p.t.t.t.p.Z.B.h.h.L.s.p.G.[.S.p.p.p.p.p.p.p.p.p.p.p.p.a.S.D.D.D.",
"t.*.%.*.Z.).] ' l j.p.z.K.D.s.p.p.p.p.p.p.p.p.p.a.S.S.H.+X&X*X&X",
"t.%.~.-.(.L.' #.' j.s.L.S.p.p.p.p.a.S.S.S.p.p.p.F.+X&X&X,X,X:X:X",
"u.&.&.*.l.g.l ` l r.D.].S.p.p.p.p.F.+X*X+XH.A.S.+X:X:X,X:X:X|.{.",
"S.(.l.y.p.F.).N.g.C.K.S.s.p.p.a.F.@X:X X:X*XOXH.OX^.|.-X.X=X=X:X",
"i.k.j.g.C.].K.S.H.].D.p.p.p.p.A.[.&X>X-X=X XOXS.A.Z.OX>X;X|.|.-X",
"g.j g k B.K._.'.@XH.p.p.p.p.p.s.S.H.OX^./.'.F.p.p.p.F.+X&X#XoX/.",
"j.z Y.g j.S.'.`.&XS.p.p.p.p.p.p.p.p.S.l.l.S.a.p.p.p.a.S.S.S.S.l.",
"g.j z j l.S.$X%X$XN.w.w.w.w.w.w.w.u.p.p.p.p.p.p.p.p.p.p.p.p.p.p.",
"r.d.>.d.r.7.y 6 1 < < > > > > > t 7.w.w.w.u.p.p.p.p.p.p.S.S.S.S.",
"> , $ , < < 5 f 7 8 8 8 8 8 9 9 7 < > > t 7.w.u.s.S.S.H.+X&X*X#X",
"0 c S c 0 d h U.F N M V V M M M n 9 9 9 7 < t 7.h.'.*X&X,X,X-X{.",
"b D E.A b Y U.i E.T E ! ! E I V V V M M n 9 7 < > u .X%X:X:X|.{.",
"b v D v C Q I.W.@./ ~ ~ ~ ~ ! ! ! E I m m M n 9 8 7 6 u U. X X X",
"m C W E ! ~ X.X./ ~ ~ ~ ~ ~ ~ ~ ~ ~ E I V V m M n 9 8 7 2 1 3 3 ",
"m Z ..^ ~ ~ ^ ( Q ~ ~ ~ ~ ~ ~ ~ ~ ~ ~ ! ! E V m m n p a 8 8 q b ",
"Z n.R.o.^ / } h =.Q ~ ~ ~ ~ ~ ~ ~ ~ ~ ~ ! E V m m m n a a n M m ",
"Z m.T.I.Z T Q.| W.X.! ! ! ! ! ! ! ! ! E I V m m m m M a a M m m ",
"U o.m.n.Z Y }.}.Q.T V V V V V V V V V V m m m m m m M a a n m m ",
"L U B Z m m Y Y Y m x m m m m m m m m m m m m m m m n a a 9 n M ",
"a ) ) Y M M M M M M M M M m m m m m m m m m M M M n p a a 8 8 8 ",
")  .XX!.) s s s s s s s L n M M M M M M M n 9 s 9 8 8 8 7 ; * * ",
"f @.+.O.a 4 4 4 4 4 4 4 4 7 7 7 7 7 7 7 7 7 8 8 7 ; * * * & & & ",
"+ [ R - X . . . . . . . o o o o o o o o o O * * * & & & & & & & ",
"  O +                   # @ @ @ @ @ @ @ @ @ & & & & & & & & & & ",
"@ @ @ @ @ @ @ @ @ @ @ @ & & & & & & & & & & & & & & & & & & & & ",
"& & & & & & % % % % % % % & & & & & & & & & & & & & & & & & % & ",
"; ; ; ; ; : : = = = : : : : : : : : : : : : : = = = = = = = = = ",
"J J J J K c.7.M.b.;.f.f.f.f.f.f.f.f.f.f.f.;.:.v.:.v.c.v.f.M.M.M.",
"H ' P D A r 4.V.T.8.9.9.9.9.9.9.9.9.9.9.9.5.x.P.l _ G P.j.`.OXOX",
"G P.{ A S e 4.J.V.0.2.2.2.2.2.2.2.2.2.2.2.2.1.5.1.6.3.5.2.q.q.q.",
"w w $ $ w $.,.<.<.,.,.,.,.,.,.,.,.,.,.,.,.,.,.,.,.,.,.,.,.,.,.,."
};
