/* XPM */
static const char *Q1JFQUtZV09PRA__[] = {
/* columns rows colors chars-per-pixel */
"32 32 6 1 ",
"  c #241616",
". c #462525",
"X c #5E3424",
"o c #683D26",
"O c #754C2E",
"+ c #775A2E",
/* pixels */
"         ..       .....         ",
"oo..ooo +oOOOoOOOOoXXXo +ooOOOOo",
"XXXoooX.+oOoOOOooXXXooo.+oooOOoo",
"OoXXXXo.+ooooooXXoOOOOo.+oXXooOO",
"      ......             ....   ",
"+++oooOOOOOooo.+oOOOOOOoOOOOOoo.",
"+oooOOooXXOOoo.+OOooOOOoo...ooo.",
"+oOOOOOOoXXXXo.+ooXXoo.....o.oo.",
"..            ........          ",
"o...ooo.+o+++oo+oOOOOoo +ooOOooo",
"XXXXooo.+ooXXXXoOOoXXXo.+OOOOOXX",
"ooOOOoo.+ooOOOOOOooOOoo.+oOOOOOO",
" ....               ....        ",
"+ooooOOOoooooo ++++++o.+++ooooo ",
"+OoooooOOOOooo.+ooXXXXXXXXoOOOo.",
"+oOOOOoooooOOo.+ooOOOOOOOOooOOO.",
"           ..................   ",
"OOOOOoo +oooXooOOOOOoXX.+oOOOOOO",
"XoooOOo.+oOOOOOOoXXoOoX.+ooXXXXX",
"oo.oooo +oXXXXooOOOOOoo +oooOOOO",
"..       ....       ..   .......",
"+ooOOOOooXXXXXX+oooooOOOoXXoOOO.",
"+ooXXooOOOOOoo.+ooOOOoOoXXoOOoo ",
"+oooXXXXXooooo.+XXXoooOOOOOOoXo ",
"   ...    ..........        ..  ",
"XoOOOoo +oOOOoXXXoOOOOo ooOOOOoX",
"OOOooXX.+oooOOOXoOOoooo.oXXOOOoo",
"OooXXXo.+XXXooOOOOoXXXX.XXoOOOOO",
"  ........             ...      ",
"+ooOOooo..oXXX ooooOooXXXXoooOo ",
"+XXoOOOOooXXoo OOOOOXXXooooOOOo.",
"+oXXoooOOOOooo.ooXXXXoooOOOOooo."
};
