/* XPM */
static char *_ae366aa31fa4a8d8a1a7918846c9c7dle2mgHzSdRot7Gbk[] = {
/* columns rows colors chars-per-pixel */
"30 120 255 2 ",
"   c #010C0D",
".  c #000207",
"X  c #020E14",
"o  c #0B0E13",
"O  c #041315",
"+  c #04141A",
"@  c #0A161B",
"#  c #05191C",
"$  c #0C1B1D",
"%  c #0A1516",
"&  c #121E1E",
"*  c #001209",
"=  c #061D21",
"-  c #0C1D23",
";  c #091B27",
":  c #131D23",
">  c #0D2125",
",  c #0C232B",
"<  c #132324",
"1  c #13242A",
"2  c #1A262B",
"3  c #14292E",
"4  c #1A2B2D",
"5  c #1A2725",
"6  c #152B33",
"7  c #1A2C33",
"8  c #1C2D3A",
"9  c #152935",
"0  c #153136",
"q  c #1C3135",
"w  c #1C333B",
"e  c #1D3A3D",
"r  c #16323C",
"t  c #0F2B31",
"y  c #222A2C",
"u  c #26342E",
"i  c #222E37",
"p  c #233335",
"a  c #23353B",
"s  c #243A3D",
"d  c #2B3A3A",
"f  c #2A3538",
"g  c #333C3C",
"h  c #373A37",
"j  c #34423E",
"k  c #3C433C",
"l  c #2C403B",
"z  c #1C3542",
"x  c #1D3A42",
"c  c #1C3847",
"v  c #233542",
"b  c #243C43",
"n  c #2A3C44",
"m  c #243C4A",
"M  c #2C3E4A",
"N  c #283547",
"B  c #333D44",
"V  c #373D48",
"C  c #2B3E51",
"Z  c #303F52",
"A  c #244245",
"S  c #2C4245",
"D  c #25434B",
"F  c #2C434B",
"G  c #2C4A4E",
"H  c #294C4A",
"J  c #334244",
"K  c #32454C",
"L  c #34494D",
"P  c #3B4B4C",
"I  c #3A4748",
"U  c #3B524D",
"Y  c #345249",
"T  c #2B4451",
"R  c #2D4B53",
"E  c #2D4C5B",
"W  c #254654",
"Q  c #344553",
"!  c #344C53",
"~  c #3A4D54",
"^  c #334E5A",
"/  c #3B4D5B",
"(  c #384655",
")  c #2C5358",
"_  c #355156",
"`  c #3C5255",
"'  c #34545B",
"]  c #3C545B",
"[  c #3D595D",
"{  c #365A5B",
"}  c #22514B",
"|  c #3B615A",
" . c #2C4B60",
".. c #2D5663",
"X. c #345561",
"o. c #3A5564",
"O. c #365C64",
"+. c #3C5C63",
"@. c #3A5B6B",
"#. c #365869",
"$. c #355467",
"%. c #3C6265",
"&. c #3D646B",
"*. c #366266",
"=. c #3B6875",
"-. c #3C727A",
";. c #2A636A",
":. c #444A4B",
">. c #43534C",
",. c #4B554B",
"<. c #454B52",
"1. c #445353",
"2. c #4C5C54",
"3. c #43555B",
"4. c #435B5C",
"5. c #4B5C5C",
"6. c #495756",
"7. c #525B5C",
"8. c #545856",
"9. c #515848",
"0. c #4B635C",
"q. c #46625B",
"w. c #52635D",
"e. c #576458",
"r. c #57654E",
"t. c #435562",
"y. c #445C63",
"u. c #4B5C63",
"i. c #435D6B",
"p. c #4B5D6A",
"a. c #4B5763",
"s. c #525D62",
"d. c #5A5D65",
"f. c #435E75",
"g. c #456265",
"h. c #4B6364",
"j. c #4D6B65",
"k. c #44636B",
"l. c #4C646A",
"z. c #436A6D",
"x. c #4D6B6D",
"c. c #466962",
"v. c #536463",
"b. c #556B64",
"n. c #5B6C64",
"m. c #53656A",
"M. c #5A656B",
"N. c #536B6C",
"B. c #5A6C6C",
"V. c #5A6465",
"C. c #54726C",
"Z. c #5B726D",
"A. c #5C7165",
"S. c #436572",
"D. c #456B73",
"F. c #4C6C73",
"G. c #496977",
"H. c #546D73",
"J. c #5B6D73",
"K. c #556A78",
"L. c #4D7173",
"P. c #4D747B",
"I. c #45767B",
"U. c #547374",
"Y. c #5B7473",
"T. c #5C7975",
"R. c #53757B",
"E. c #5A767A",
"W. c #557A7C",
"Q. c #5C7B7C",
"!. c #547973",
"~. c #4D766D",
"^. c #626D66",
"/. c #6B7B6D",
"(. c #65746C",
"). c #627474",
"_. c #637A74",
"`. c #6B7B74",
"'. c #63767A",
"]. c #647C7C",
"[. c #6B7C7B",
"{. c #687579",
"}. c #747C77",
"|. c #69706F",
" X c #626554",
".X c #827E75",
"XX c #56867B",
"oX c #64827E",
"OX c #6D837D",
"+X c #688277",
"@X c #73837D",
"#X c #78887C",
"$X c #6F806E",
"%X c #84877E",
"&X c #4A7882",
"*X c #5C7C82",
"=X c #547B82",
"-X c #637D82",
";X c #6B7D83",
":X c #637E89",
">X c #707D85",
",X c #4D8187",
"<X c #558285",
"1X c #5D8283",
"2X c #5C858A",
"3X c #5F9190",
"4X c #648284",
"5X c #6B8384",
"6X c #6D8A85",
"7X c #63858B",
"8X c #6C858A",
"9X c #658A8C",
"0X c #6C8A8B",
"qX c #648987",
"wX c #728583",
"eX c #738A84",
"rX c #72858B",
"tX c #738B8B",
"yX c #7B8A88",
"uX c #7B938D",
"iX c #76938E",
"pX c #698D93",
"aX c #748C92",
"sX c #788D95",
"dX c #6D9193",
"fX c #6B9398",
"gX c #749294",
"hX c #7B9394",
"jX c #7C9A95",
"kX c #7C9A9B",
"lX c #769699",
"zX c #6D948D",
"xX c #7BA39E",
"cX c #7B9AA1",
"vX c #7FA1A0",
"bX c #84978C",
"nX c #829594",
"mX c #829B9B",
"MX c #859998",
"NX c #818D8F",
"BX c #86A39D",
"VX c #92A698",
"CX c #849FA4",
"ZX c #84A3A2",
"AX c #8CA5A4",
"SX c #8BA8AA",
"DX c #95A9A8",
"FX c #96B2AE",
"GX c #8CACB1",
"HX c #94AEB4",
"JX c #8DB2B2",
"KX c #9AB6B6",
"LX c #A5B4AB",
"PX c #A9C3BB",
"IX c #AFC8C7",
/* pixels */
"^.e.,.2.7.5.n.>.Y.tX~ m.U.Q.h.I u 2.|.V.Y.tXC.oXr.n.1.(.w./.",
"9.8.7.V.s.<.1.5.N.nXJ 5.Y.tXY.[.b.w.(.^.b.].oX_.e.w.w._.`./.",
"8.8.^.M.5.1.j w.x.AXP 7.b._.h.MXzXT.(.n.5.B.@X@X^.,.B.[.NXn.",
",.2.(.M.I u.S 5.Q.rXf :.w.B.h.aXjX+Xn.w.B.Y.`.yXe.j B.).MX(.",
"n.2.5.v.u.DX).P rXm.d :.7.6.N.].AXb.,.w.OX6X(.#X^.j m.).MX`.",
"w.w.w.0.I NX[.>.;Xh.h.B.B.P B.N.DXw.,.@XwX5X_.@X#X2.b.[.MX/.",
"/.A.b.5.6.).`.6.s.4.F.F.aXH.'.b.hX[.2.wX[.[.@X#XVXb.v.OXVX$X",
"/.A.b.v.).7.`.v.:.m.R.&.aXJ.'._.Q.BX6.Z.).wXNX}.LX_.v.+XVX/.",
"$XrXz.5.).|.J.b.1.B.x.[ 8XwX).N.'.tXh.m.`.}.yXyXIX).Y.[.LX.X",
"bXrXz.` C.d.Y.Y.0.T.R.k.8XhXm.M.Z.gXQ.].@X`.@XwXFXb.j.OXLX%X",
"#XJ.&.` T.s.Q.j.c.!.P.z.0XMX6.m.q.lXdXQ.OX`.`.eXPXj.C.6XMX#X",
"e.M.P.5.C.P Q.` q.x.z.k.gXnX6.m.j.kX4Xc.[.`.B.hXKXY T.6XwX#X",
"9.M.E.1.q.B 8Xq.8.s.y.l.CXwXN.N.[.mXh.` {.|.7.MXeXU b.eXbX@X",
" Xd.x.I Y :.;X6.8.7.a.K.DXY.Y.U.[.AXh.` ^.}.V.NX_.5XN.eXLX(.",
"/.7.W.6.Y <.] ` 8.6.l.-XHXh.Y.U.T.mXl.l.1.V.s.).'.iXC._.DXe.",
"r.P dX_.Y I S Y.2.1.U.gXHXh.H.E.].9X+.4Xd d J u.].!.T.A.#X,.",
"e.8.XXXX:.J u.J.m.M.g.9XyXm.L.U.W.x.q.6XL u.J M.]._.eX2.e.,.",
"n.,.~.| 8.1.s.m.l.J.L.9X1.5.Q.x.R.` oXC.` KXB.J.8XY.uXn.#X/.",
"[.:.!.h.<.P v.h.z.! z.W.P J.Q.h.! Y.tXwXh.sXaXu.gXY.yXb.`./.",
"OXg Y <.<.5.V.Y.R.n ] 0 I MXqX` S Z.eX_.B.8XtXy.E.).uX+X`.#X",
"_.s.q.B |.B.7.oXm.f 5.4.a.E.XXY.4._.OX4.Y.aXhXN.m.Y.nX`.b.@X",
"(.@XmXs.hXE.:.[ q V M.rX5.N.lXB.h.iX_.C.tXY.AXB.B.J.hX0.b.A.",
"(.Z.iXm.lX9X<.A | I B m.m.Y.gXv.U.Q.oXY.0X4XAXC.B.B.MXZ.uX@X",
"`.+XT.m.<X3XV x.XXY.H.! J.].].7.W.qXBXC.x.8XHXN.).J.tXZ.wX`.",
"<.Z.0.).'.7X&.g.,X9XSXJ.H.Q.tXm.W.IXjXc.Y.Y.IXZ.).[.bX_.Y.[.",
"I Z.b.{.'.dXP.[ I.P.CXlXE.x.mXm.l.hXY.0.J.tXKX+XB.OXuX0.b.nX",
":.w.q.yXrXdXW.4.fX1XlXGXL.L.ZX] f V.}.6.[.5XAX6X].OXbXb.[.AX",
"8.b.q.yX;XpX1X` zX1XU.dX' R.lX] n 1.1.>.B.tXeXeXY.N.eX0.wXmX",
"7.+XZ.wXJ.gX9Xd B.c.l.E.y.L ! ! gXj.0.1.P 5.L +XtXZ.OX>.eXAX",
"7.`.Z.wXJ.lX4Xp I a k.*XSX~ S Y.KX| C.q.B.hX5.).lXj.b.0.uXAX",
"8.0.q.{.J.lXT.f v.S L.1XKXl.` '.xX!.oXjXY.HX'.C.SXY.0.A.B.Y.",
"h U U M.m.kX].g m.` %.*.9XN.N.Y.mX_.b.nXY.rXlXj.ZXtXb.`.6.].",
"h h j 6.y.hXl.S G.G.' +.cXx.x.U.kX].4XtX4X4XMXB.BXeX6.5X8XZX",
"k f j 5.4.lX_ ! G.*XD.' lXl.x.Y.SXx.F.gX].oXmX[.iXMXh.).MXSX",
"h >.w.P m.MXF 3.k.*X7XG aX[ N.oXlX+.1XSX9X4X0XN.6XtXv.B.MXFX",
"k (.[.f '.;Xq 3.x.F.lX' 9XF h.KX0XA y.Q.Q.6XtX[.iXZ.N.).eXAX",
"J n.n.y B.3.q u.l.' dXF.F.S L IX8Xs b S N.rXtXwXT.C.h.5XeXjX",
"` b.v.f J J J 5.u.[ 4X*XR J.K m.] x.8Xh.h.5XrX).0.uXq._.gXgX",
"l.;X'.d d g J 6.s.m.7X7XD lXH.3 w aXIXlX[ 5XaX].Z.AXT.N.gXlX",
"t.J.).f 7.g g ).s.3.*X*Xc *XaXb R 9XJXGXg.4X4XY.Y.OX6XC.lXJX",
"V <.s.a J.m.n m.p.y.8Xy.] J.E.D 5.5XZXKXQ.*XlXE.T.4X6Xj.KXkX",
"f 7.5.K rXhXL ~ p.o.4X+.l.;XU.R H.4XlXJXQ.E.0X4X].].hX6.5XB.",
"P B.` L ].MXL ~ k.D.pX+.N.tXg._ R.*X0XGX0XE.-X9X{.J.nXJ ` 5.",
"1.m.h.[ l.tXS ~ K.7XlX4.h.rX~ [ L.1X1XSXhXJ.Q.1X;X'.nX` N.tX",
"P 6.Y.] [ 8X~ B H.-XE.` u.;XL x.L.9XR.lX8Xy.Q.qXm.J.8X` 5XhX",
"P J u._ [ -XL p 1.1.n J v.J.~ E.U.pXW.pXQ.[ *X9Xl.Q.0Xq.MXiX",
"J J P y.l.N.n p f d 4 d J.u.k.P.E.4X1X9XQ.g.*XgXU.T.lXC.AXeX",
"g s.P ` [ u.` 4.5 g J S ].] P.I.'.E.1X1XP.k.*XcX!.N.mX[.DX`.",
"p uXH ( s.g U cXl 3.+.P.Q.I H.&XK.*X2X9X5X~ -XgX_ 4XmXN.FX`.",
"S MXT.3.M.h 5.GXI ~ S.pX].I H.I.P.&X,X2XlXN.E.1XH.4XlXh.DXZ.",
"~ jX6Xa <.u B.HXh.] k.fXU.d J.I.-.I.I.<XlXQ.x.L.ZXT.oXc.AXB.",
"4.eX6Xn V y U lXY.] o.2XU.a Y.W.-.-.<X<XgXoX4.C.FXq.4.!.AX8X",
"u.T.oXu.B u j gXx.] t.=X9XL '.*XI.&X2X1X0XtXh.[.AXT.[ Q.AXhX",
"t.N.C.3.y :.I *Xy.p.p.G.pXo.-XW.&X=X-X-XtXkXC.{.jXFXT.Y.ZX8X",
"] c.C.~ y ,.I R ! M.p.D.&Xo.-XU.=XE.E.4X0XBXC.N.tXSX5XU.SXtX",
"t.` C.3.g >.2.F.s M.m.P.=.i.:XL.W.E.].6XzXxXx.4.hX8X8X].FXtX",
"] m.H.) _ <.J lXy 6.i.i.E R.=X2X,X<XW.4X8XZX1XvXtXwXtXY.FXgX",
"L y.U._ n I n oXk J p.i.F.X.2X=.&X=X*X5X-XGXlXSX5XrX'.h.ZXZX",
"m.[ H.! s 3.! h.l L ! K.l.T P.-.&X=XtX0XU.cXdXdXJ.].].h.BXtX",
"{.[ Q.K n E.U.J j.U., p.p.+.&.-.D.R.0X4Xx.9X7X9XE.B.hXT.PX_.",
"6.4.hXB n 1XdXi ZX0X, t.m.] &.-.P.Q.4XY.x.R.W.0X8Xh.tXZ.LXw.",
"<.J {.V ~ F.aXK gXk.9 J.m.F +.=.P.Q.5X].oX*XR.E.E.N.tXY.yXb.",
"4.f :.J [ [ -Xy.y.a , m.u.y.+...O.D.4X].9XlX5X4.4.Y.hX@X`.bX",
"U h h S { ] J.+.N n F ! ` _ +.=.=.D.4XC.T.gX0Xd [ H.OXZ.2.bX",
"1.5.u.n y.y.y.] c &X*.T ^ / G.-.F.&.7XU.U.tX).J Q.l.6Xb.6.eX",
"v.5.;Xb.! u.p.S ] &XO.m ^ / S.;.k.k.Q.E.E.5X5X` *Xg.oX[._.yX",
"B.3.rX].S u.p.Q ] I.{ b ' y.G.-.y.l.U.E.U.Y.5X[ D.[ E.Y.).wX",
"5.3.'.J.] i.p.y.! P.+.b ' ^ i.-.y.y.H.E.H.F.-X[ P.+.R.l.Y.tX",
"L u.J.l.y.t.l.y.m W.' w ' W o.-.i.+.U.U.N.U.*Xy.fX+.H.Q.[.wX",
"L l.E.l.T T l.L ( G.F v X.X.o.&XS.+.U.U.x.U.E.[ 0X[ H.E.]._.",
"_ y.K.k.c T ] n K.X.T ( ..&.E =.D.&.D.U.H.H.E.F 5.h.].m.).).",
"[ [ i.K.^ o.n n K.z C i.) D.E G.=.D.z.R.E.H.4XF p 5.'.5.).'.",
"4.a.] D.o.o.O.M ~ a ( ;.$.f.Q z.F.U.[ U.7X*X8Xa 4 5.'.L H.Q.",
"` s.` O.Q ^ D.w K L / .. .f.p.R F.x.` x.*XR.-Xw p m.h.n N.4X",
"Y 5.q.' C ^ =Xw R ] / .. .S.i.b P.F.+.F.R.R.-Xw p u.1.S m.-X",
"U 7.1.{ M v *Xn k.' S *.o.D.M F P.G.%.k.G.P.*Xb a J L 3.h.Q.",
"h.g 5.F i Z ^ P G.) w &.Q =.F b G.D.+.' +.D.=X! H.b ~ N.4.U.",
"4.f ` G N p.z I =.*.7 k.8 =.F.9 z.x.g.R O.D.W.y.cXD [ E.[ F.",
"A J.e +./ i.%.n #.D.a ~ v =.=Xv _ l.l.] D.P.K.i.7XW +.K.y.F.",
") aX' ) c R.%.[ #.I.M n / -.*.t.w 5.B.y.R.P.@.' =XO.D.G.o.+.",
"` N.x.F b i.' i.=.G.! 1 L g.S.=.b G u.H.*.{ t./ U.%.D.&.D.k.",
"[ h.] m ] H.T ^ &X#.' L S ' O.O.' %.n J.%.%.v / ] g.F.' +.y.",
"] y.! w 4.H.b n k.T +.o.F W E @.+.<Xx l.D.L.v T a y.H.' / K ",
"F [ L q S S 7 7 w b k.E E ^ R k.' =XD ~ W.k.M T 6 ! +.] ] K ",
"F [ _ F n , a a 1 s H.W E E ^ y.) &.R n F.w M ' F ' +.[ L K ",
"! ! [ y.] , M ! m 0 i.' ^ T ' ' ' &.^ 6 F , K { ^ k.z.{ b S ",
"b w ! ! +.9 x ^ ^ r m ! _ G R ' ] D.' - q 7 K ) b +.O.O.G R ",
"q q _ b [ m x ^ X.D , s ` ! z ' t.&.G : S p s } F +.R +.+.^ ",
"2 w H e n M T W  .o.m r ! n M S _ S.n & ^ L u D ] x ' O.=.W ",
"2 q A 0 p v C E @. .D z D ! w b S &.a p o.b p ' L 0 R &.D.R ",
"y 1 0 > 1 7 T #. .E X.D 0 ' 6 F a +.6 J +., d D.6 = z k.+.F ",
"y $ > > 6 8 F o.W +.E b w y.w w d X.3 K #.t s P.- = 6 y.! w ",
"y $ 1 q n v v m D l.b w n S a 7 d W 7 S @.x a D.q 7 7 ] S q ",
"p $ 1 p L n v m b t.8 a M 6 s a 2 z w s &.D 4 F w w , m ! ! ",
"p - 1 8 S b m L L S 9 w S S n 1 $ 9 s p S.S 5 6 6 b , w ' y.",
"q > 7 s S s a K A e F b w ! s # @ r S a S.b y 1 r ^ 0 6 _ [ ",
"7 < 4 J b m w a R z 8 M 9 D z 9 $ 3 z b 1.d F ) n F _ x w ] ",
"S > $ p L ! 8 1 r b / Q b D F z 2 8 F v ~ p L &.w q b A m / ",
"n < % 7 F Q t 1 x M M S F D b t 1 M ! 9 7 7 F ^ 6 6 w F b ! ",
"6 4 < 3 M m 1 2 ^ F ; v b S 9 , ; n M 8 1 p w b i w w F w M ",
"1 7 4 3 F T 6 2 K M ; w v F 9 r r 1 7 d n a 6 b a w 6 S 6 8 ",
"= 2 7 3 T F 6 2 7 a b 6 b K w w E , p p ~ w 7 i B w 6 F 6 @ ",
"O - 4 9 T v 3 2 : w ^ w 8 n 7 r  .w d 4 s x 3 < I s w L 8 X ",
"@ + 1 8 ^ m 1 : - w ] F ; 8 ; D  .r 4 f 3 x = 1 J S D R a $ ",
"3 - $ 9 / z 1 2 1 6 n F ; ; w F m a s n a 6 3 a S s 7 ~ 3 3 ",
"p i @ = v m 1 @ + 6 S ( 7 9 w m x 3 n K a q 7 v q > > b ; 3 ",
"1 a O + 8 M , X X 1 8 p 6 6 6 S e > s s 3 b b 7 - > s n 1 p ",
"= a % 1 w b ; @ $ > + - , = = F D , 6 - > F b 6 + < J i - s ",
"3 B $ 1 9 9 ; : $ $ O - 1 > # q R 6 > + , b w a 7 > 4 O O 7 ",
"8 B & $ 6 7 9 @ % $ O $ > 1 $ > e a 2 O - q a p a - $ O % < ",
"> 4 & O 7 9 b @ % % @ > - 3 3 > w w 1 $ + 1 s i 3 - @ % O % ",
"- : $ O 6 ; n : $ O - p 3 8 a q ! - X i < O p n 6 2 O     < ",
"O < < - - @ q < 4 $ 6 n 3 > K w ` 7 + I P $ 3 L 4 : % <   > ",
"  $ 1 1 - @ - @ a 1 6 - = a ~ > _ a + n P - $ a 7 $ + 4 $ $ ",
"% - > , w n <   - - p - # s K = w ! 6 7 4 - # > s > - 6 1 = ",
": 1 1 , b 4.2 . + X 7 4 3 q q > z +.b w # $ < $ 6 = > 1 q q ",
": 1 7 t 6 S $ o s + - 3 q 3 - $ ! T w ! 1 - 2 $ 3 = , 3 b b ",
": + 3 6 , < O & L 3 1 1 q < $ % w 7 q ` < % 5 @ 6 # > 7 n 7 ",
"< X 1 6 1 < $ % s s 7 > < $ $ o X < p J $   < @ > O + 3 s 7 ",
"< + p 7 1 < 5 * e b 3 O % O & o O : 4 J 4   < < < < - 1 8 q "
};
