/* XPM */
static char *fd2fb3044d7c4f2eaa50bac1018371c8Bt2iJQx5g8Elvx1b[] = {
/* columns rows colors chars-per-pixel */
"32 32 8 1 ",
"  c #18101C",
". c #142F4E",
"X c #273973",
"o c #306C99",
"O c #2CF1EF",
"+ c #8F9DB0",
"@ c #BEC7D2",
"# c #E6EBEC",
/* pixels */
"############@o@#################",
"@@@@@@@@@@@@@o@@@@@@@@@@@@@@@@@@",
"+++++oX+++++@oX+++++++++@oX+++++",
"+++++oX+++++@oXO+o++++++@oX+++++",
"+++++oX+++++@oXo++++++++@oX+++++",
"+++++oX+++++@oX+++++++++@oX+++++",
"ooooooX+++++@oX+++++++++@ooooooo",
"XXXXXoX+++++@oX+++++++++@XXXXXXX",
"++++@oX+++++@oX+++++++++++++++++",
"++++@oX+++++@oX+++ooooooooooooo+",
"++++@ooooooo@oX+++o.OOoOO.OoO.++",
"++++@oXXXXXX@oX+++o.OO.OO.o.o.++",
"@+++@oX+++++@oX++@##############",
"o+++@oX+++++@oX+@ooooooooooooooo",
"o+++@oX+++++@oX@o               ",
"o+++@oX+++++@o@o                ",
"o@#########@@oo   oooooooooooooo",
"oooooooooooooo   ooXXXXoXXXXXX@o",
"                o@oX++@oX+++++@o",
"               oX@oX++@oX+++++@o",
"oooooooooooooooX+@oX++@oX+++++@o",
"XXXXXXoXXXXXXXX++@oX++@oX+++++@X",
"+++++@oX+++++++++@oooooooo++++++",
"+++++@oX+++++++++@o       o+++++",
"+++++@oX+++++++++@o ... . oo++++",
"+++++@oX+++++++++@o       oXo+++",
"ooooooooooooooooo@o OO O  o+Xooo",
"XXoXXXXXXXXXXXXXX@o       o++XXX",
"+@oX++++++O+O+O++@o OO OO o+++++",
"+@oX+++++++++++++@o       o+++++",
"+@oX+++++++++++++@o       o+++++",
"oooooooooooooooooooooooooooooooo"
};
